<?xml version="1.0" encoding="utf-8"?>
<!-- Generator: Adobe Illustrator 27.5.0, SVG Export Plug-In . SVG Version: 6.00 Build 0)  -->
<svg version="1.1" xmlns="http://www.w3.org/2000/svg" xmlns:xlink="http://www.w3.org/1999/xlink" x="0px" y="0px"
	 viewBox="0 0 3710 3710" style="enable-background:new 0 0 3710 3710;" xml:space="preserve">
<g id="Background">
	<g>
		<g>
			<rect style="fill:#FFFFFF;" width="3710" height="3710"/>
		</g>
	</g>
</g>
<g id="Illustration">
	<g>
		<path style="fill:#F4F7FA;" d="M3221.442,1650.966c-76.318-499.541-389.224-1113.263-1007.405-1177.489
			c0,0-469.351-57.09-932.029,29.435c-274.599,51.352-515.383,204.217-667.741,423.922
			C461.909,1146.54,411.016,1414.44,472.781,1669.85c40.116,165.891,67.224,337.582,59.784,508.045
			c-12.948,296.675-5.498,573.599,282.418,750.527c257.076,157.978,580.61,297.308,889.266,321.712
			c209.76,16.585,444.993-10.253,647.163-64.864C3381.711,2906.954,3297.76,2150.507,3221.442,1650.966z"/>
		<g>
			<g>
				
					<linearGradient id="SVGID_1_" gradientUnits="userSpaceOnUse" x1="3307.0459" y1="1430.6958" x2="4396.2183" y2="1430.6958" gradientTransform="matrix(-1 0 0 1 5654.4409 0)">
					<stop  offset="0" style="stop-color:#FF9085"/>
					<stop  offset="1" style="stop-color:#FB6FBB"/>
				</linearGradient>
				<path style="fill:url(#SVGID_1_);" d="M1750.554,2351.584c140.279,77.169,333.518,51.039,443.035-104.497
					c61.34-87.115,100.319-209.945,122.568-313.135c138.382-641.824-228.519-266.793-217.074-660.185
					c11.445-393.392-1.727-654.07-506.102-790.994c0,0-452.175-136.924-305.474,418.509
					c26.885,101.787,67.065,202.91,132.631,286.273c68.902,87.604,160.379,153.3,245.722,223.567
					c102.138,84.094,31.048,223.644-7.339,322.359c-47.706,122.682-94.582,247.036-72.567,380.962
					C1604.213,2225.519,1668.274,2306.321,1750.554,2351.584z"/>
				<g style="opacity:0.8;">
					<path style="fill:#FFFFFF;" d="M1887.436,2335.456c1.805,0,3.461-1.197,3.964-3.023c0.686-2.491,68.86-252.493,83.117-539.235
						c8.382-168.558-3.224-316.692-34.493-440.29c-39.197-154.932-109.584-271.594-209.205-346.745
						c-1.812-1.367-4.394-1.009-5.762,0.806c-1.369,1.813-1.007,4.394,0.806,5.762c222.438,167.798,253.525,516.816,240.436,780.058
						c-14.214,285.848-82.147,534.975-82.833,537.458c-0.603,2.19,0.683,4.456,2.873,5.059
						C1886.706,2335.407,1887.074,2335.456,1887.436,2335.456z"/>
				</g>
			</g>
			<g>
				<path style="fill:#BFC8D6;" d="M2080.924,2711.702c19.167-2.696,36.778-15.939,51.521-43.829
					c61.217-115.798-53.182-291.14-55.633-412.765c-2.464-122.283,24.351-241.527,54.019-359.153
					c30.596-121.302,46.33-250.222-36.911-354.901c-71.772-90.257-194.917-159.043-306.874-92.127
					c-207.367,123.908-201.907-83.327-237.752-223.089c-41.26-160.873-221.459-347.758-400.315-313.384
					c-160.387,30.825-226.51,258.083-226.561,399.003c-0.027,73.583,27.06,185.945,83.531,238.807
					c129.969,121.664,424.389,120.827,310.668,356.643c-38.342,79.507-74.38,164.605-1.634,237.133
					c74.531,74.307,197.736,80.815,290.897,118.055c105.971,42.361,177.676,129.307,241.91,219.864
					C1879.006,2525.967,1995.445,2723.723,2080.924,2711.702z"/>
				<g style="opacity:0.8;">
					<path style="fill:#FFFFFF;" d="M2092.036,2674.901c0.385-0.023,0.773-0.102,1.156-0.24c2.136-0.774,3.24-3.134,2.466-5.271
						c-0.924-2.549-94.05-258.336-235.368-550.037c-83.019-171.366-166.188-321.436-247.198-446.038
						c-101.387-155.947-199.711-272.283-292.238-345.775c-1.777-1.414-4.367-1.117-5.781,0.663
						c-1.413,1.779-1.117,4.367,0.663,5.781c208.147,165.328,406.991,520.292,537.148,788.956
						c141.132,291.323,234.113,546.708,235.036,549.254C2088.557,2673.949,2090.264,2675.008,2092.036,2674.901z"/>
				</g>
			</g>
		</g>
		<g>
			<g>
				<g>
					<path style="fill:#AABBCC;" d="M1786.114,673.771L1509.45,2973.358c-4.147,34.479,19.616,65.387,52.905,68.69l1152.346,126.51
						c70.592,4.391,109.243-31.674,113.599-68.338l290.467-2444.845c4.332-36.459-30.301-69.477-101.194-69.478l-1162.83,24.491
						C1821.08,610.953,1790.241,639.474,1786.114,673.771z"/>
					<path style="fill:#BFC8D6;" d="M1734.251,669.814l-278.184,2311.09c-4.171,34.653,19.674,65.72,53.085,69.047l1194.66,118.941
						c37.455,3.729,71.779-23.366,76.16-60.219L3072.07,651.194c4.355-36.647-23.155-66.104-61.019-65.466l-1207.901,20.38
						C1769.361,606.678,1738.401,635.344,1734.251,669.814z"/>
					<path style="fill:#EAEDF3;" d="M1756.92,797.291l-257.841,2142.838c-3.895,32.375,18.435,61.346,49.71,64.386l1123.537,109.217
						c34.819,3.385,66.726-21.907,70.805-56.21l269.941-2270.141c4.058-34.125-21.482-61.737-56.653-61.362l-1135.068,12.087
						C1789.752,738.443,1760.797,765.074,1756.92,797.291z"/>
					<path style="fill:#FFFFFF;" d="M2359.42,668.226c-1.473,12.303,7.356,22.151,19.734,21.995
						c12.391-0.156,23.641-10.277,25.115-22.604c1.475-12.328-7.387-22.174-19.779-21.993
						C2372.109,645.805,2360.891,655.923,2359.42,668.226z"/>
					<g>
						<path style="fill:#FFFFFF;" d="M1951.169,2235.699c230.013-425.261,573.617-552.553,677.068-990.831
							c55.919-236.907,17.82-463.658-46.349-651.899l429.163-7.242c37.864-0.638,65.374,28.819,61.018,65.466l-292.097,2457.479
							c-4.38,36.853-38.705,63.948-76.161,60.219l-939.119-93.499C1757.748,2694.342,1848.639,2425.262,1951.169,2235.699z"/>
					</g>
				</g>
			</g>
			<g>
				<path style="fill:#FFFFFF;" d="M2130.437,1725.682l-59.923,27.393c-9.538,4.36-13.952,15.46-9.862,24.816l14.927,34.136
					c-14.773,9.927-28.501,20.945-41.044,32.965l-29.82-21.678c-8.219-5.975-19.89-3.985-26.086,4.432l-38.76,52.651
					c-6.199,8.422-4.641,20.173,3.501,26.26l29.401,21.981c-7.936,15.761-14.503,32.198-19.66,49.113l-36.542-4.081
					c-10.153-1.134-19.452,6.393-20.792,16.823l-8.421,65.548c-1.354,10.535,5.807,20.104,16.014,21.362l36.464,4.497
					c0.771,17.757,3.163,35.636,7.08,53.467l-34.246,14.92c-9.586,4.176-14.139,15.623-10.17,25.593l25.032,62.881
					c4.037,10.141,15.192,15.01,24.916,10.849l34.741-14.868c9.782,15.84,20.761,30.69,32.898,44.331l-22.904,31.185
					c-6.446,8.776-4.76,21.49,3.788,28.412l53.988,43.717c8.719,7.061,21.102,5.585,27.632-3.315l23.38-31.86
					c16.45,8.974,33.656,16.521,51.432,22.502l-4.409,40.684c-1.233,11.373,6.735,22.022,17.822,23.775l69.941,11.055
					c11.282,1.785,21.394-6.118,22.559-17.639l4.189-41.402c18.686-0.548,37.464-2.846,56.146-6.856l17.239,39.421
					c4.778,10.926,17.196,16.348,27.738,12.079l66.255-26.828c10.648-4.311,15.273-16.705,10.333-27.65l-17.971-39.806
					c16.063-10.354,30.988-21.979,44.557-34.819l35.33,26.415c9.716,7.264,23.104,5.668,29.874-3.585l42.335-57.839
					c6.768-9.245,4.282-22.536-5.526-29.666l-36.024-26.189c8.1-16.972,14.662-34.642,19.57-52.816l43.744,5.394
					c11.871,1.465,22.255-6.652,23.165-18.114l5.658-71.289c0.899-11.339-7.955-21.589-19.75-22.905l-43.522-4.861
					c-1.814-18.406-5.363-36.803-10.545-55.008l39.286-16.813c10.579-4.528,15.055-16.519,9.997-26.753l-31.358-63.434
					c-4.97-10.054-17.446-14.501-27.865-9.962l-38.69,16.855c-10.958-15.14-23.029-29.147-36.126-41.853l24.114-32.861
					c6.498-8.853,4.208-21.088-5.087-27.312l-57.556-38.542c-9.112-6.102-21.681-3.959-28.094,4.773l-23.771,32.366
					c-16.507-7.504-33.599-13.569-51.065-18.169l3.939-38.934c1.062-10.494-6.88-19.686-17.714-20.544l-67.19-5.314
					c-10.655-0.843-20.187,6.872-21.311,17.242l-4.128,38.087c-17.54,1.454-35.067,4.489-52.419,8.997l-15.548-34.441
					C2151.295,1725.286,2140.063,1721.282,2130.437,1725.682z M2328.04,2253.945c-103.779,43.312-222.625-7.362-265.736-110.366
					c-42.084-100.55,3.279-215.431,101.553-259.244c99.548-44.381,218.919-0.693,266.492,100.312
					C2479.111,2088.176,2433.224,2210.046,2328.04,2253.945z"/>
				<path style="fill:#FFFFFF;" d="M2015.806,1127.794l-38.485,27.084c-6.139,4.32-7.961,12.349-4.068,17.944l14.195,20.397
					c-9.144,8.811-17.447,18.195-24.819,28.071l-23.205-9.871c-6.405-2.725-14.325,0.368-17.702,6.905l-21.149,40.937
					c-3.387,6.556-0.967,14.134,5.417,16.929l23.02,10.08c-3.762,11.694-6.493,23.63-8.186,35.666l-26.012,2.971
					c-7.238,0.826-12.903,7.284-12.661,14.433l1.52,44.925c0.244,7.219,6.343,12.45,13.632,11.673l25.996-2.769
					c2.541,11.663,6.225,23.146,10.967,34.352l-22.226,15.347c-6.229,4.301-8.12,12.629-4.219,18.612l24.573,37.686
					c3.958,6.069,12.28,7.496,18.584,3.173l22.493-15.425c8.57,8.906,17.852,16.958,27.792,24.017l-12.389,24.299
					c-3.489,6.843-0.895,14.97,5.809,18.154l42.239,20.062c6.806,3.233,15.183,0.246,18.694-6.676l12.563-24.76
					c12.315,3.249,24.977,5.432,37.841,6.493l1.479,27.437c0.413,7.669,7.055,13.365,14.844,12.712l49.008-4.108
					c7.884-0.66,13.901-7.468,13.429-15.195l-1.695-27.771c12.656-3.357,25.167-7.87,37.411-13.48l15.998,22.987
					c4.429,6.364,13.426,7.907,20.09,3.431l41.787-28.07c6.7-4.5,8.468-13.302,3.955-19.643l-16.43-23.085
					c9.7-9.28,18.488-19.201,26.224-29.691l26.591,11.644c7.3,3.197,16.098,0.059,19.634-7.012l22.081-44.152
					c3.526-7.049,0.435-15.292-6.888-18.408l-26.943-11.462c3.595-12.286,6.083-24.786,7.41-37.358l29.843-3.179
					c8.084-0.861,14.139-7.713,13.514-15.292l-3.89-47.149c-0.62-7.501-7.633-12.831-15.656-11.914l-29.656,3.387
					c-3.205-11.712-7.574-23.162-13.02-34.248l24.52-16.815c6.593-4.521,8.295-12.991,3.806-18.902l-27.871-36.698
					c-4.425-5.826-13.287-6.892-19.8-2.395l-24.219,16.723c-9.035-8.275-18.707-15.65-28.94-22.031l12.71-25.051
					c3.423-6.744,0.545-14.414-6.41-17.128l-43.172-16.852c-6.852-2.675-15.153,0.567-18.553,7.236l-12.614,24.742
					c-12.062-2.501-24.379-3.973-36.804-4.427l-1.6-26.202c-0.431-7.063-6.87-11.955-14.371-10.936l-46.641,6.335
					c-7.416,1.007-13.113,7.503-12.735,14.518l1.389,25.762c-11.907,3.56-23.643,8.167-35.108,13.727l-14.574-20.477
					C2030.189,1124.441,2021.975,1123.453,2015.806,1127.794z M2209.75,1445.412c-65.952,44.801-153.142,30.414-194.402-30.715
					c-40.439-59.912-21.827-143.013,41.237-186.954c63.5-44.244,149.772-33.337,193.082,25.707
					C2293.868,1313.708,2276.175,1400.29,2209.75,1445.412z"/>
			</g>
		</g>
		<g>
			<g>
				
					<linearGradient id="SVGID_00000063627869001650279950000017828865226729663419_" gradientUnits="userSpaceOnUse" x1="1920.8754" y1="356.7345" x2="2024.7943" y2="1181.3864">
					<stop  offset="0.0036" style="stop-color:#E38DDD"/>
					<stop  offset="0.3555" style="stop-color:#C783E6"/>
					<stop  offset="1" style="stop-color:#9571F6"/>
				</linearGradient>
				<path style="fill:url(#SVGID_00000063627869001650279950000017828865226729663419_);" d="M2866.198,918.398l-194.434,1983.106
					c-3.701,37.746-37.547,65.732-75.365,62.39l-1188.936-105.075c-34.049-3.009-58.341-34.431-54.266-70.054l214.364-1874.088
					c3.886-33.971,34.242-61.562,67.786-61.556l1169.774,0.206C2842.281,853.335,2869.718,882.5,2866.198,918.398z"/>
				
					<linearGradient id="SVGID_00000119839910950210258040000001772247882225076413_" gradientUnits="userSpaceOnUse" x1="2275.6799" y1="834.2924" x2="1659.1227" y2="5047.4087">
					<stop  offset="0.0036" style="stop-color:#E38DDD"/>
					<stop  offset="0.3555" style="stop-color:#C783E6"/>
					<stop  offset="1" style="stop-color:#9571F6"/>
				</linearGradient>
				<path style="fill:url(#SVGID_00000119839910950210258040000001772247882225076413_);" d="M2848.927,918.348l-194.722,1981.654
					c-2.762,28.11-27.908,48.92-56.081,46.45l-1188.78-104.187c-25.385-2.225-43.475-25.59-40.441-52.158l214.147-1875.387
					c2.894-25.341,25.493-45.867,50.508-45.846l1169.927,1.009C2831.175,869.909,2851.555,891.607,2848.927,918.348z"/>
				
					<linearGradient id="SVGID_00000152961044422495962130000000576747017485647250_" gradientUnits="userSpaceOnUse" x1="2288.5061" y1="442.4693" x2="2189.2729" y2="1120.5587">
					<stop  offset="0.0036" style="stop-color:#E38DDD"/>
					<stop  offset="0.3555" style="stop-color:#C783E6"/>
					<stop  offset="1" style="stop-color:#9571F6"/>
				</linearGradient>
				<path style="fill:url(#SVGID_00000152961044422495962130000000576747017485647250_);" d="M2848.927,918.348l-12.893,131.21
					l-1267.181-10.511l14.196-124.325c2.894-25.341,25.493-45.867,50.508-45.846l1169.927,1.009
					C2831.175,869.909,2851.555,891.607,2848.927,918.348z"/>
				<g>
					<path style="fill:#FFFFFF;" d="M1697.18,946.638c-1.95,17.3-17.391,31.252-34.466,31.156
						c-17.049-0.095-29.264-14.165-27.306-31.418c1.957-17.246,17.339-31.181,34.381-31.132
						C1686.855,915.294,1699.129,929.346,1697.18,946.638z"/>
					<path style="fill:#FFFFFF;" d="M1813.667,947.132c-1.934,17.387-17.504,31.41-34.752,31.313
						c-17.222-0.096-29.589-14.237-27.647-31.578c1.942-17.333,17.451-31.338,34.665-31.289
						C1803.173,915.628,1815.6,929.752,1813.667,947.132z"/>
					<path style="fill:#FFFFFF;" d="M1931.338,947.63c-1.918,17.476-17.618,31.569-35.041,31.472
						c-17.397-0.097-29.919-14.31-27.992-31.739c1.926-17.421,17.564-31.497,34.953-31.447
						C1920.673,915.966,1933.256,930.162,1931.338,947.63z"/>
				</g>
			</g>
			<g>
				<path style="fill:#FFFFFF;" d="M2320.864,1347.259l-714.093-15.04c-8.349-0.176-15.897,6.585-16.864,15.102l-58.069,511.695
					c-0.979,8.628,5.019,15.929,13.402,16.305l717.169,32.17c8.924,0.4,16.917-6.503,17.845-15.418l55.043-528.551
					C2336.212,1354.727,2329.748,1347.446,2320.864,1347.259z"/>
				<g>
					<polygon style="fill:#FFFFFF;" points="2316.505,1192.541 1602.397,1182.169 1611.768,1099.652 2325.406,1107.446 					"/>
					<polygon style="fill:#FFFFFF;" points="1878.848,1257.125 1594.453,1252.125 1598.788,1213.952 1883.099,1218.476 					"/>
				</g>
				<g>
					<g>
						<polygon style="fill:#FFFFFF;" points="2715.481,1395.847 2409.729,1388.896 2413.823,1349.217 2719.474,1355.654 						"/>
						<polygon style="fill:#FFFFFF;" points="2707.483,1476.355 2401.529,1468.372 2405.631,1428.614 2711.484,1436.081 						"/>
						<polygon style="fill:#FFFFFF;" points="2699.469,1557.025 2393.313,1548.006 2397.423,1508.169 2703.478,1516.669 						"/>
					</g>
					<g>
						<polygon style="fill:#FFFFFF;" points="2684.063,1712.097 2377.519,1701.081 2381.645,1661.092 2688.088,1671.585 						"/>
						<polygon style="fill:#FFFFFF;" points="2676.002,1793.242 2369.255,1781.179 2373.389,1741.11 2680.034,1752.649 						"/>
						<polygon style="fill:#FFFFFF;" points="2667.924,1874.552 2360.974,1861.437 2365.117,1821.288 2671.965,1833.877 						"/>
					</g>
				</g>
				<path style="fill:#FFFFFF;" d="M2656.115,1993.424c-0.56,5.636-5.658,9.982-11.385,9.706l-1119.974-53.904
					c-5.202-0.25-8.923-4.803-8.314-10.167l0,0c0.609-5.364,5.317-9.512,10.518-9.266l1119.798,52.939
					C2652.485,1983.002,2656.675,1987.789,2656.115,1993.424L2656.115,1993.424z"/>
				<path style="fill:#FFFFFF;" d="M2577.29,2786.875c-0.571,5.748-5.708,10.027-11.472,9.557l-1126.757-91.812
					c-5.231-0.426-8.966-5.203-8.345-10.668l0,0c0.621-5.465,5.362-9.553,10.592-9.131l1126.58,90.809
					C2573.65,2776.094,2577.861,2781.128,2577.29,2786.875L2577.29,2786.875z"/>
				<g>
					<polygon style="fill:#FFFFFF;" points="2739.378,1155.293 2501.372,1152.266 2505.756,1109.416 2743.678,1112.014 					"/>
					
						<linearGradient id="SVGID_00000006690080057756617750000003151515207373087670_" gradientUnits="userSpaceOnUse" x1="2584.3699" y1="1327.6813" x2="2458.7788" y2="1788.1824">
						<stop  offset="0.0036" style="stop-color:#E38DDD"/>
						<stop  offset="0.3555" style="stop-color:#C783E6"/>
						<stop  offset="1" style="stop-color:#9571F6"/>
					</linearGradient>
					<polygon style="fill:url(#SVGID_00000006690080057756617750000003151515207373087670_);" points="2726.644,1145.133 
						2546.225,1142.913 2548.578,1119.797 2728.961,1121.842 					"/>
				</g>
				<polygon style="fill:#FFFFFF;" points="1970.674,2669.632 1444.51,2628.527 1515.731,2000.937 2039.369,2027.334 				"/>
				<polygon style="fill:#FFFFFF;" points="2584.176,2717.561 2030.272,2674.288 2098.67,2030.324 2649.69,2058.102 				"/>
			</g>
			<path style="opacity:0.5;fill:#FFFFFF;" d="M2675.551,2862.886l-3.786,38.618c-3.701,37.746-37.547,65.732-75.365,62.39
				l-1188.936-105.075c-34.049-3.009-58.341-34.431-54.266-70.054l214.364-1874.088c3.886-33.971,34.242-61.562,67.786-61.556
				l143.039,0.025c-0.97,5.294-1.874,10.557-2.781,15.852c-2.94,17.284-5.572,34.606-7.833,52
				c-2.278,17.273-4.246,34.588-5.774,51.911c-2.053,22.58-3.445,45.179-4.07,67.705c-1.324,44.619,0.334,88.924,5.679,132.361
				c31.915,259.477,384.048,302.42,361.518,608.265c-11.63,158.221-93.205,310.167-91.432,470.6
				c3.536,318.56,329.434,346.974,537.64,505.691c32.832,25.046,62.497,53.735,88.486,85.334
				C2665.258,2849.434,2670.515,2856.097,2675.551,2862.886z"/>
		</g>
		<g>
			<g>
				
					<linearGradient id="SVGID_00000176018593392260941320000010636837652410728619_" gradientUnits="userSpaceOnUse" x1="1297.5667" y1="1487.9858" x2="787.293" y2="1900.6565" gradientTransform="matrix(1 0 0 1 15.4486 0)">
					<stop  offset="0" style="stop-color:#AB316D"/>
					<stop  offset="1" style="stop-color:#792D3D"/>
				</linearGradient>
				<path style="fill:url(#SVGID_00000176018593392260941320000010636837652410728619_);" d="M1615.017,1835.736
					c0,27.489-20.248,51.974-42.925,51.974H785.088c-22.677,0-41.65-24.485-41.65-51.974v-481.137
					c0-27.489,18.972-47.942,41.65-47.942h787.004c22.677,0,42.925,20.453,42.925,47.942V1835.736z"/>
				
					<linearGradient id="SVGID_00000023972422801691683330000015885311507507120036_" gradientUnits="userSpaceOnUse" x1="1114.958" y1="1651.2903" x2="2217.7251" y2="807.0901" gradientTransform="matrix(1 0 0 1 15.4486 0)">
					<stop  offset="0" style="stop-color:#FFC444"/>
					<stop  offset="0.9964" style="stop-color:#F36F56"/>
				</linearGradient>
				<path style="fill:url(#SVGID_00000023972422801691683330000015885311507507120036_);" d="M1636.806,1354.613v481.133
					c0,18.444-8.131,35.598-20.415,44.494c-6.023,4.38-12.888,7.47-20.348,7.47H809.04c-22.686,0-43.813-24.487-43.813-51.964
					v-481.133c0-27.511,21.127-47.956,43.813-47.956h787.004C1618.729,1306.657,1636.806,1327.102,1636.806,1354.613z"/>
				<g>
					<path style="fill:#FFFFFF;" d="M1512.764,1797.529l-152.596-214.883c-1.537-2.163-4.14-3.465-6.93-3.465
						s-5.396,1.301-6.932,3.464l-87.753,123.529l-143.728-202.392c-1.537-2.163-4.14-3.465-6.93-3.465
						c-2.79,0-5.393,1.302-6.93,3.465l-208.642,293.747c-1.682,2.368-1.829,6.384-0.38,8.881c1.447,2.497,4.255,5.037,7.31,5.037
						h285.925h146.735h173.919c3.055,0,5.863-2.539,7.31-5.036C1514.588,1803.913,1514.443,1799.897,1512.764,1797.529z"/>
					<circle style="fill:#FFFFFF;" cx="1334.792" cy="1447.786" r="65.756"/>
				</g>
				<g style="opacity:0.3;">
					
						<linearGradient id="SVGID_00000034081632342754284190000001216200067775379134_" gradientUnits="userSpaceOnUse" x1="749.7786" y1="1597.1832" x2="1601.092" y2="1597.1832" gradientTransform="matrix(1 0 0 1 15.4486 0)">
						<stop  offset="0" style="stop-color:#FFC444"/>
						<stop  offset="0.9964" style="stop-color:#F36F56"/>
					</linearGradient>
					<path style="fill:url(#SVGID_00000034081632342754284190000001216200067775379134_);" d="M1616.541,1880.239
						c-6.023,4.38-13.037,7.47-20.497,7.47H809.04c-22.686,0-43.813-24.487-43.813-51.964v-481.133
						c0-27.511,21.127-47.956,43.813-47.956h7.938c14.646,25.421,32.781,59.752,55.296,90.172
						c206.435,278.805,532.768,198.369,721.307,450.723C1602.1,1858.946,1609.697,1869.7,1616.541,1880.239z"/>
				</g>
			</g>
			<g>
				
					<linearGradient id="SVGID_00000078745242211130351670000000738742400474767015_" gradientUnits="userSpaceOnUse" x1="266.4928" y1="1767.798" x2="301.4515" y2="2016.2556" gradientTransform="matrix(-1 0 0 1 1013.1603 0)">
					<stop  offset="0" style="stop-color:#FFC444"/>
					<stop  offset="0.9964" style="stop-color:#F36F56"/>
				</linearGradient>
				<path style="fill:url(#SVGID_00000078745242211130351670000000738742400474767015_);" d="M765.167,1790.713v-47.792
					c0,0,6.87-10.203,10.478-35.462c3.609-25.258-2.947-15.244-6.164-4.735c-0.897,2.93-2.756,5.415-4.97,7.476
					c-5.565,5.181-14.711,1.792-15.786-5.735l-4.523-31.646c0,0-18.352,18.764-5.073,65.702c4.157,14.694,0,50.143,0,50.143
					L765.167,1790.713z"/>
				
					<linearGradient id="SVGID_00000110451325611800729490000006746283722986586507_" gradientUnits="userSpaceOnUse" x1="-592.7552" y1="1888.6965" x2="-557.7969" y2="2137.1511" gradientTransform="matrix(-1 0 0 1 1013.1603 0)">
					<stop  offset="0" style="stop-color:#FFC444"/>
					<stop  offset="0.9964" style="stop-color:#F36F56"/>
				</linearGradient>
				<path style="fill:url(#SVGID_00000110451325611800729490000006746283722986586507_);" d="M1602.127,1828.75l12.04-46.534
					c0,0-11.576-17.854-6.02-36.082c5.557-18.228,2.216-11.736,6.696,0c4.48,11.736,13.328-8.136,20.24-26.24
					c6.911-18.104,10.455,9.726,8.77,26.24c-1.686,16.513-2.308,26.341-12.171,38.391c-9.862,12.05-7.886,54.902-7.886,54.902
					L1602.127,1828.75z"/>
				<path style="fill:#26264F;" d="M918.857,3109.788c-0.385-10.254-25.092-8.192-41.283-6.64
					c-16.192,1.552-23.321,8.051-25.851,14.12c-2.53,6.069-0.63,21.051,14.327,14.771
					C878.327,3126.886,919.198,3118.851,918.857,3109.788z"/>
				
					<linearGradient id="SVGID_00000167362644459822719530000010572729579612653700_" gradientUnits="userSpaceOnUse" x1="110.3038" y1="2997.2422" x2="163.1323" y2="3154.4702" gradientTransform="matrix(-1 0 0 1 1013.1603 0)">
					<stop  offset="0" style="stop-color:#FFC444"/>
					<stop  offset="0.9964" style="stop-color:#F36F56"/>
				</linearGradient>
				<path style="fill:url(#SVGID_00000167362644459822719530000010572729579612653700_);" d="M889.09,3070.067l-11.516,39.721
					c0,0-11.524,7.916-15.31,3.977l4.29-45.779L889.09,3070.067z"/>
				
					<linearGradient id="SVGID_00000017488474114105392220000018159290630947217562_" gradientUnits="userSpaceOnUse" x1="42.6425" y1="3020.5493" x2="95.0806" y2="3176.6155" gradientTransform="matrix(-1 0 0 1 1013.1603 0)">
					<stop  offset="0" style="stop-color:#FFC444"/>
					<stop  offset="0.9964" style="stop-color:#F36F56"/>
				</linearGradient>
				<polygon style="fill:url(#SVGID_00000017488474114105392220000018159290630947217562_);" points="970.455,3046.564 
					932.316,3063.2 938.718,3082.498 976.912,3072.564 				"/>
				<path style="fill:#26264F;" d="M972.626,3121.46c0,0-25.414,6.574-36.655-8.443c-7.228-9.656-13.244-26.056-16.617-36.535
					c-1.832-5.69,1.047-11.802,6.599-14.016c8.062-3.214,19.027-6.682,23.702-4.052c7.82,4.399,0.489,33.633,3.91,41.253
					C956.987,3107.287,973.603,3112.174,972.626,3121.46z"/>
				
					<linearGradient id="SVGID_00000000218770310249814940000013485000103953168772_" gradientUnits="userSpaceOnUse" x1="256.0837" y1="2916.6235" x2="8.044" y2="2636.9548" gradientTransform="matrix(-1 0 0 1 1013.1603 0)">
					<stop  offset="0" style="stop-color:#444B8C"/>
					<stop  offset="0.9964" style="stop-color:#3E4177"/>
				</linearGradient>
				<path style="fill:url(#SVGID_00000000218770310249814940000013485000103953168772_);" d="M1031.893,2452.048
					c-5.747,92.14-18.436,198.884-43.698,315.876c-26.334,121.951-60.547,228.263-94.888,317.125
					c-3.313,1.585-9.215,3.879-16.898,4.101c-8.993,0.259-15.867-2.457-19.309-4.101c-6.239-47.495-9.452-87.586-11.237-117.361
					c-4.717-78.633-6.857-118.904,3.851-165.693c10.047-43.905,18.123-40.479,28.611-89.006
					c9.326-43.155,9.528-76.348,9.545-124.952c0.012-33.374-1.516-78.447-7.964-131.934
					C930.568,2454.753,981.23,2453.4,1031.893,2452.048z"/>
				
					<linearGradient id="SVGID_00000083081990011308431930000006879133776800574885_" gradientUnits="userSpaceOnUse" x1="256.0838" y1="2916.6235" x2="8.0439" y2="2636.9546" gradientTransform="matrix(-1 0 0 1 1013.1603 0)">
					<stop  offset="0" style="stop-color:#444B8C"/>
					<stop  offset="0.9964" style="stop-color:#3E4177"/>
				</linearGradient>
				<path style="opacity:0.3;fill:url(#SVGID_00000083081990011308431930000006879133776800574885_);" d="M888.313,3052.588
					c10.099-32.522-9.811-47.376-7.491-88.645c2.833-50.421,33.884-51.928,43.698-108.621c7.886-45.559-11.315-49.494-6.243-104.876
					c5.39-58.858,28.575-70.792,23.722-106.125c-2.699-19.645-14.155-46.439-54.319-75.621
					c-0.537-30.724-2.492-68.771-7.775-112.597c50.662-1.35,101.324-2.704,151.987-4.055
					c-5.747,92.14-18.436,198.884-43.698,315.876c-26.334,121.951-60.547,228.263-94.888,317.125
					c-3.313,1.585-9.215,3.879-16.898,4.101c-4.077,0.118-7.643-0.415-10.726-1.144
					C875.263,3078.719,883.805,3067.101,888.313,3052.588z"/>
				
					<linearGradient id="SVGID_00000132801927481493998600000001065659270061400489_" gradientUnits="userSpaceOnUse" x1="-55.8301" y1="2757.2117" x2="-422.0625" y2="2688.9595" gradientTransform="matrix(-1 0 0 1 1013.1603 0)">
					<stop  offset="0" style="stop-color:#444B8C"/>
					<stop  offset="0.9964" style="stop-color:#3E4177"/>
				</linearGradient>
				<path style="fill:url(#SVGID_00000132801927481493998600000001065659270061400489_);" d="M1155.497,2435.817
					c1.844,22.205,5.462,55.823,13.235,96.197c17.525,91.04,37.643,120.2,42.948,179.726
					c6.186,69.413-12.767,124.047-19.976,144.829c-49.214,141.863-184.35,207.894-220.11,224.066
					c-4.038-13.094-8.078-26.19-12.115-39.285c8.995-12.032,22.322-31.399,34.887-57.054c21.453-43.803,22.895-69.61,37.528-112.744
					c26.399-77.821,46.461-66.801,51.281-106.424c7.638-62.795-43.033-88.148-88.737-208.203
					c-13.097-34.402-20.754-63.362-24.97-81.154C1031.477,2462.453,1093.486,2449.135,1155.497,2435.817z"/>
				
					<linearGradient id="SVGID_00000168084718590405880080000010682084963724599184_" gradientUnits="userSpaceOnUse" x1="-231.1729" y1="1624.0271" x2="-3.1101" y2="2461.3694" gradientTransform="matrix(-1 0 0 1 1013.1603 0)">
					<stop  offset="0" style="stop-color:#FF9085"/>
					<stop  offset="1" style="stop-color:#FB6FBB"/>
				</linearGradient>
				<path style="fill:url(#SVGID_00000168084718590405880080000010682084963724599184_);" d="M773.449,1771.604
					c-12.902-2.081-25.803-4.162-38.704-6.243c-16.199,22.783-62.871,94.8-53.686,191.024c2.175,22.805,11.59,98.47,75.554,158.667
					c45.799,43.103,96.716,56.649,120.049,61.319c0.041,112.066-2.081,182.735-5.932,225.031
					c-0.464,5.099-4.437,47.893,1.353,103.084c1.764,16.818,2.693,25.322,4.994,29.964c31.926,64.431,214.961,13.37,264.401-7.995
					c12.855-5.555,25.912-13.283,31.499-26.963c7.177-17.577,0.297-33.51-2.497-47.444c-6.861-34.215,13.478-60.041,54.265-126.417
					c17.247-28.068,42.291-70.205,71.541-124.906c33.857,9.878,113.647,27.577,191.759-9.686
					c114.777-54.755,180.274-206.402,146.885-370.743c-11.653-3.329-23.306-6.659-34.959-9.988
					c-7.713,31.891-22.582,74.834-53.042,118.144c-18.481,26.277-33.872,48.16-60.573,60.395
					c-41.926,19.21-79.161-0.295-133.592-13.734c-85.769-21.174-157.483-13.273-244.599-3.673
					c-95.174,10.489-121.259,30.037-190.846,16.894c-30.951-5.845-69.697-13.67-101.419-44.434
					C753.493,1883.38,770.858,1785.096,773.449,1771.604z"/>
				
					<linearGradient id="SVGID_00000105415160551579373480000016918297921356862384_" gradientUnits="userSpaceOnUse" x1="-126.9263" y1="1947.0553" x2="-85.7249" y2="2068.5784" gradientTransform="matrix(-1 0 0 1 1013.1603 0)">
					<stop  offset="0" style="stop-color:#FFC444"/>
					<stop  offset="0.9964" style="stop-color:#F36F56"/>
				</linearGradient>
				<path style="fill:url(#SVGID_00000105415160551579373480000016918297921356862384_);" d="M1129.036,1896.832
					c0,0,5.707,22.845-2.332,33.084c-8.038,10.238-34.882,49.478-43.621,51.395c-4.979,1.092-17.453,2.979-27.267,4.403
					c-5.166,0.748-6.262,7.859-1.473,9.936c9.76,4.236,26.973,8.498,56.53,8.178c42.722-0.462,77.087-16.717,92.068-25.139
					c2.128-1.197,1.12-4.424-1.313-4.241l-19.226,1.445c-16.467,1.239-30.001-12.797-28.169-29.208l1.195-10.687L1129.036,1896.832z
					"/>
				<g>
					<g>
						
							<linearGradient id="SVGID_00000021096993884216807030000004934192726911686283_" gradientUnits="userSpaceOnUse" x1="-122.3829" y1="3457.7549" x2="-81.1818" y2="3579.2773" gradientTransform="matrix(-1 0 0 1 498.5801 0)">
							<stop  offset="0" style="stop-color:#FFC444"/>
							<stop  offset="0.9964" style="stop-color:#F36F56"/>
						</linearGradient>
						<path style="fill:url(#SVGID_00000021096993884216807030000004934192726911686283_);" d="M1146.669,1942.822
							c2.643-1.451,24.121-4.06,27.08-15.61c4.02-15.677-10.071-34.76-11.826-37.831c-7.349-12.855-9.197-14.592-12.615-16.77
							l-4.742-2.78c0,0-0.275-0.104-0.561-0.199c-3.027-1.001-13.268-1.081-15.331-0.591c-6.591,1.564-13.033,28.706-10.159,66.808
							c-0.242,1.459-0.473,2.931-0.696,4.415C1117.239,1944.12,1146.863,1944.18,1146.669,1942.822z"/>
						<path style="fill:#26264F;" d="M1166.869,1867.406c0.931,4.657-11.398,13.931-16.669,17.935
							c-0.641,0.488-2.494,2.129-4.173,4.772c-0.245,0.385-0.458,0.834-0.643,1.411c-2.42,7.506,9.62,16.004,7.409,19.389
							c-1.603,2.458-9.724-0.595-10.633,1.514c-0.857,1.986,5.923,5.906,4.952,8.284c-0.732,1.795-4.886,0.261-7.42,3.045
							c-1.262,1.382-0.858,2.451-2.135,6.628c-0.723,2.36-1.75,4.952-2.557,6.398c-3.928,7.031-15.438,9.827-17.727,7.101
							c-0.638-0.76-0.12-1.421-0.811-4.003c0,0-0.641-2.395-2.379-5.138c-2.482-3.924-8.323-6.638-14.245-10.703
							c-10.969-7.527-14.053-14.084-14.984-16.304c-0.105-0.249-0.197-0.478-0.277-0.688c-0.159-0.375-0.295-0.753-0.411-1.131
							c-2.317-7.562,7.285-20.698,7.285-20.698c7.706-10.366,17.438-17.323,25.217-21.746c14.227-2.8,25.813-2.446,33.836-1.559
							C1157.036,1862.639,1166.132,1863.719,1166.869,1867.406z"/>
						<path style="fill:#26264F;" d="M1171.304,1906.63c0,0-9.096,10.916-21.112-2.193l-5.932,1.751c0,0,14.504,31.91,17.606,31.91
							c3.102,0,12.16-2.064,12.16-2.064c3.395-1.421,5.308-5.06,4.527-8.657C1177.129,1920.818,1173.403,1911.252,1171.304,1906.63z
							"/>
						
							<linearGradient id="SVGID_00000152229718394397156890000004480941487900232108_" gradientUnits="userSpaceOnUse" x1="766.1224" y1="4193.4448" x2="872.2456" y2="4364.4907" gradientTransform="matrix(-1 0 0 1 498.5801 0)">
							<stop  offset="0" style="stop-color:#FFC444"/>
							<stop  offset="0.9964" style="stop-color:#F36F56"/>
						</linearGradient>
						<path style="fill:url(#SVGID_00000152229718394397156890000004480941487900232108_);" d="M1147.308,1908.234
							c-2.987-3.915-7.992-0.061-7.906,5.09c0.087,5.149,5.197,10.391,10.014,9.263
							C1154.235,1921.462,1151.326,1913.503,1147.308,1908.234z"/>
					</g>
				</g>
				
					<linearGradient id="SVGID_00000088847103440354709940000006452708788272137344_" gradientUnits="userSpaceOnUse" x1="-391.9088" y1="1667.8057" x2="-163.8452" y2="2505.1506" gradientTransform="matrix(-1 0 0 1 1013.1603 0)">
					<stop  offset="0" style="stop-color:#FF9085"/>
					<stop  offset="1" style="stop-color:#FB6FBB"/>
				</linearGradient>
				<path style="opacity:0.3;fill:url(#SVGID_00000088847103440354709940000006452708788272137344_);" d="M925.769,2515.723
					c62.006,21.851,134.272-10.098,152.32-53.686c13.34-32.223-15.165-62.961,4.994-96.136
					c19.412-31.947,54.469-17.633,78.657-49.941c26.36-35.209-4.661-66.398,18.728-113.615
					c17.596-35.522,59.731-67.491,101.13-67.42c49.208,0.083,67.587,45.383,109.87,36.207c22.087-4.791,21.574-18.131,52.438-39.953
					c53.563-37.872,89.48-22.008,133.592-48.692c12.962-7.843,27.427-19.866,40.883-39.194
					c-26.351,66.926-71.944,119.89-130.337,147.748c-78.112,37.263-157.902,19.564-191.759,9.686
					c-29.25,54.701-54.295,96.838-71.541,124.906c-40.787,66.376-61.126,92.203-54.265,126.417
					c2.794,13.933,9.673,29.867,2.497,47.444c-5.586,13.68-18.644,21.408-31.499,26.963
					c-49.441,21.366-232.475,72.426-264.401,7.995c-2.301-4.642-3.23-13.146-4.994-29.964c-1.1-10.476-1.845-20.501-2.33-29.911
					C882.514,2490.933,900.532,2506.83,925.769,2515.723z"/>
			</g>
		</g>
		<g>
			
				<linearGradient id="SVGID_00000016763760992674170570000012652606857250003873_" gradientUnits="userSpaceOnUse" x1="3704.2588" y1="3130.676" x2="3287.6995" y2="2886.5264" gradientTransform="matrix(-0.996 -0.0893 -0.0893 0.996 6259.8042 280.7622)">
				<stop  offset="0" style="stop-color:#311944"/>
				<stop  offset="1" style="stop-color:#893976"/>
			</linearGradient>
			<path style="fill:url(#SVGID_00000016763760992674170570000012652606857250003873_);" d="M2460.018,2992.508
				c6.547,15.189,14.239,29.597,23.012,43.106c-1.266,1.251-2.524,2.52-3.726,3.891c-23.691,27.038-25.18,67.874-2.756,90.987
				c22.643,23.339,60.431,19.166,83.825-9.069c1.211-1.462,2.322-2.979,3.406-4.507c13.656,8.957,28.063,16.661,43.081,23.034
				c-0.559,1.816-1.093,3.649-1.526,5.537c-8.362,36.492,10.688,71.53,42.69,77.581c31.991,6.049,63.865-19.339,71.069-56.024
				c0.366-1.861,0.615-3.706,0.841-5.549c16.287-0.394,32.699-2.267,49.099-5.617c0.372,1.787,0.771,3.573,1.284,5.346
				c10.002,34.521,43.048,52.086,73.367,38.817c30.009-13.134,45.278-51.256,34.549-84.753c-0.551-1.719-1.196-3.367-1.857-4.995
				c13.839-9.407,26.78-19.839,38.74-31.187c1.111,1.221-17.044,6.923-15.829,8.061c23.842,22.313,78.178,13.876,97.002-12.908
				c18.51-26.336,14.102-64.65-9.372-85.793c-1.22-1.1-2.485-2.093-3.757-3.058c7.006-14.598,12.903-29.665,17.653-45.065
				c1.464,0.42,2.94,0.814,4.452,1.103c28.963,5.536,55.219-15.375,58.595-46.19c3.315-30.259-16.751-58.744-44.774-64.12
				c-1.434-0.274-2.858-0.441-4.28-0.589c-0.735-15.138-2.599-30.252-5.579-45.236c1.354-0.377,2.707-0.777,4.043-1.282
				c25.672-9.687,37.543-39.325,26.869-65.915c-10.517-26.2-39.16-39.918-64.317-30.917c-1.309,0.469-2.564,1.021-3.804,1.59
				c-7.472-12.374-15.723-23.977-24.685-34.75c0.935-0.951,1.86-1.915,2.725-2.96c16.757-20.226,13.287-50.394-7.377-67.527
				c-20.499-16.994-50.643-15.094-67.703,4.376c-0.898,1.027-1.712,2.096-2.504,3.176c-11.895-6.815-24.266-12.712-37.02-17.653
				c0.369-1.277,0.716-2.563,0.976-3.888c4.935-25.13-10.473-49.819-68.108-55.155c-26.516-2.455-21.113,11.831-26.839,36.823
				c-0.296,1.292-0.496,2.579-0.676,3.867c-13.656-0.187-27.484,0.667-41.397,2.573c-0.288-1.278-0.597-2.555-1.003-3.823
				c-7.781-24.292-26.426-47.149-86.613-29.394c-26.383,7.781-15.841,34.872-8.629,59.768c0.377,1.3,0.841,2.55,1.324,3.787
				c-12.971,6.739-25.377,14.368-37.138,22.84c-0.906-0.976-1.826-1.939-2.836-2.849c-19.603-17.656-51.774-15.628-72.281,4.674
				c-20.821,20.612-21.98,52.415-2.148,70.887c1.041,0.97,2.139,1.849,3.25,2.705c-8.798,12.619-16.721,25.901-23.689,39.745
				c-1.405-0.401-2.825-0.779-4.299-1.062c-28.211-5.411-58.552,13.505-67.911,42.724c-9.532,29.759,6.26,58.807,35.426,64.38
				c1.493,0.286,2.994,0.46,4.495,0.613c-1.909,15.847-2.614,31.956-2.077,48.207c-1.563,0.423-3.133,0.871-4.703,1.434
				c-30.481,10.907-50.324,44.734-43.954,75.915c6.475,31.701,37.395,48.135,68.675,36.334
				C2456.91,2993.947,2458.472,2993.238,2460.018,2992.508z M2541.72,2901.237c-26.506-106.548,35.775-216.201,134.777-249.278
				c95.839-32.021,198.19,17.443,232.998,114.155c36.779,102.184-13.484,222.432-117.476,264.552
				C2684.219,3074.331,2569.827,3014.212,2541.72,2901.237z"/>
			
				<linearGradient id="SVGID_00000175324482588720768200000012244249786617489079_" gradientUnits="userSpaceOnUse" x1="3153.644" y1="2817.9919" x2="3257.7534" y2="2864.8411" gradientTransform="matrix(-0.996 -0.0893 -0.0893 0.996 6259.8042 280.7622)">
				<stop  offset="0" style="stop-color:#311944"/>
				<stop  offset="1" style="stop-color:#893976"/>
			</linearGradient>
			<path style="fill:url(#SVGID_00000175324482588720768200000012244249786617489079_);" d="M2432.865,2832.054
				c-29.165-5.575-44.958-34.623-35.426-64.381c9.359-29.219,39.701-48.135,67.911-42.724c1.474,0.283,2.894,0.662,4.299,1.061
				c6.967-13.845,14.89-27.125,23.689-39.745c-1.112-0.855-2.209-1.735-3.25-2.705c-19.833-18.472-38.716-59.468-15.822-78.257
				c42.563-34.928,70.648-14.96,90.251,2.696c1.01,0.909,1.93,1.873,2.835,2.848c11.762-8.471,24.168-16.101,37.139-22.839
				c-0.484-1.238-0.947-2.488-1.324-3.787c-3.938-13.595-1.035-27.678,6.615-38.983c13.588,38.197,27.138,77.376,40.543,117.614
				c-83.314,41.9-132.711,141.484-108.604,238.386c21.451,86.234,93.763,141.97,175.928,143.409
				c1.792,10.197,3.517,20.498,5.603,30.733c5.716,28.053,13.069,56.079,20.55,84.473c-7.977,0.894-15.94,1.448-23.868,1.641
				c-0.226,1.843-0.475,3.689-0.841,5.548c-7.204,36.687-33.522,66.703-92.032,58.091c-32.415-4.771-30.087-43.154-21.727-79.648
				c0.432-1.886,0.966-3.719,1.524-5.536c-15.017-6.373-29.424-14.077-43.08-23.035c-1.084,1.529-2.196,3.045-3.407,4.506
				c-23.395,28.238-84.718,35.843-107.296,12.435c-22.359-23.179,2.538-67.313,26.229-94.352c1.202-1.372,2.46-2.642,3.726-3.892
				c-8.773-13.508-16.466-27.916-23.013-43.105c-1.547,0.73-3.108,1.44-4.719,2.045c-31.28,11.803-62.199-4.632-68.676-36.333
				c-6.369-31.18,13.473-65.008,43.954-75.915c1.572-0.563,3.14-1.01,4.704-1.433c-0.537-16.251,0.168-32.361,2.077-48.206
				C2435.859,2832.514,2434.358,2832.339,2432.865,2832.054z"/>
			
				<linearGradient id="SVGID_00000079469240462922498470000000542855431327370420_" gradientUnits="userSpaceOnUse" x1="2958.5654" y1="3208.0798" x2="1977.647" y2="1965.5846">
				<stop  offset="0" style="stop-color:#FF9085"/>
				<stop  offset="1" style="stop-color:#FB6FBB"/>
			</linearGradient>
			<path style="fill:url(#SVGID_00000079469240462922498470000000542855431327370420_);" d="M2992.048,2831.477
				c-1.436-0.274-2.864-0.442-4.29-0.59c-0.617-15.166-2.366-30.309-5.235-45.321c1.362-0.377,2.72-0.779,4.067-1.284
				c25.84-9.705,37.989-39.397,27.49-66.034c-10.344-26.247-38.975-39.989-64.289-30.971c-1.318,0.469-2.58,1.022-3.829,1.593
				c-7.397-12.396-15.584-24.019-24.49-34.809c0.947-0.952,1.883-1.92,2.759-2.966c16.976-20.26,13.738-50.479-6.858-67.64
				c-20.431-17.022-50.692-15.12-67.969,4.383c-0.907,1.028-1.733,2.1-2.535,3.181c-11.883-6.825-24.247-12.733-37.005-17.681
				c0.381-1.279,0.74-2.568,1.013-3.894c5.154-25.171-11.694-49.325-37.563-54.325c-25.877-5.002-51.611,10.93-57.559,35.962
				c-0.308,1.295-0.519,2.584-0.711,3.873c-13.701-0.188-27.581,0.668-41.559,2.578c-0.278-1.28-0.578-2.56-0.976-3.829
				c-7.608-24.332-34.657-37.315-60.714-29.249c-26.283,8.135-42.135,34.733-35.103,59.672c0.367,1.301,0.823,2.554,1.298,3.793
				c-13.071,6.75-25.582,14.393-37.455,22.878c-0.9-0.977-1.817-1.943-2.823-2.853c-19.525-17.688-51.823-15.656-72.572,4.68
				c-21.063,20.648-22.493,52.507-2.742,71.013c1.037,0.971,2.13,1.852,3.24,2.71c-8.937,12.641-16.996,25.947-24.104,39.818
				c-1.407-0.402-2.827-0.781-4.306-1.065c-28.265-5.42-58.872,13.531-68.509,42.805c-9.815,29.815,5.793,58.92,35.017,64.505
				c1.497,0.286,3,0.46,4.505,0.612c-2.048,15.879-2.889,32.019-2.484,48.303c-1.574,0.423-3.152,0.873-4.733,1.435
				c-30.686,10.931-50.881,44.826-44.751,76.073c6.234,31.767,37.133,48.236,68.627,36.408c1.623-0.61,3.196-1.321,4.753-2.052
				c6.445,15.221,14.047,29.661,22.74,43.197c-1.283,1.254-2.555,2.527-3.776,3.9c-24.003,27.1-25.837,68.026-3.521,91.189
				c22.535,23.392,60.5,19.208,84.215-9.095c1.229-1.464,2.358-2.985,3.458-4.516c13.632,8.978,28.028,16.697,43.05,23.084
				c-0.576,1.821-1.128,3.658-1.576,5.55c-8.694,36.576,10.138,71.695,42.213,77.758c32.061,6.061,64.264-19.389,71.794-56.159
				c0.383-1.866,0.647-3.715,0.89-5.562c16.349-0.395,32.838-2.273,49.327-5.632c0.359,1.791,0.745,3.583,1.247,5.358
				c9.756,34.599,42.782,52.204,73.325,38.901c30.226-13.166,45.858-51.375,35.361-84.946c-0.538-1.723-1.17-3.375-1.824-5.006
				c13.966-9.429,27.038-19.884,39.137-31.257c1.102,1.224,2.223,2.433,3.437,3.57c23.784,22.285,58.961,18.412,78.07-8.431
				c18.786-26.393,14.67-64.788-8.717-85.973c-1.219-1.102-2.478-2.098-3.749-3.065c7.15-14.627,13.189-29.726,18.078-45.156
				c1.466,0.42,2.944,0.815,4.46,1.105c29.021,5.544,55.536-15.409,59.17-46.284
				C3040.035,2865.402,3020.125,2836.863,2992.048,2831.477z M2762.561,3031.416c-108.553,43.762-222.874-16.48-250.148-129.688
				c-25.72-106.757,37.689-216.614,137.307-249.749c96.431-32.075,198.732,17.472,232.88,114.357
				C2918.683,2868.713,2867.269,2989.204,2762.561,3031.416z"/>
		</g>
	</g>
</g>
</svg>
